<svg xmlns="http://www.w3.org/2000/svg" xmlns:xlink="http://www.w3.org/1999/xlink" version="1.1" style="" xml:space="preserve" width="512" height="512"><rect id="backgroundrect" width="100%" height="100%" x="0" y="0" fill="none" stroke="none"/>
















<g class="currentLayer" style=""><title>Layer 1</title><g id="svg_1" class="selected" stroke="#dadada" stroke-opacity="1" fill="#ffffff" fill-opacity="1">
	<g id="svg_2" stroke="#dadada" stroke-opacity="1" fill="#ffffff" fill-opacity="1">
		<g id="svg_3" stroke="#dadada" stroke-opacity="1" fill="#ffffff" fill-opacity="1">
			<path d="M256,85.333c-23.531,0-42.667,19.135-42.667,42.667s19.135,42.667,42.667,42.667s42.667-19.135,42.667-42.667     S279.531,85.333,256,85.333z M256,149.333c-11.76,0-21.333-9.573-21.333-21.333s9.573-21.333,21.333-21.333     s21.333,9.573,21.333,21.333S267.76,149.333,256,149.333z" id="svg_4" stroke="#dadada" stroke-opacity="1" fill="#ffffff" fill-opacity="1"/>
			<path d="M288,192h-85.333c-5.896,0-10.667,4.771-10.667,10.667v42.667c0,5.896,4.771,10.667,10.667,10.667h10.667v160     c0,5.896,4.771,10.667,10.667,10.667h64c5.896,0,10.667-4.771,10.667-10.667V202.667C298.667,196.771,293.896,192,288,192z      M277.333,405.333h-42.667v-160c0-5.896-4.771-10.667-10.667-10.667h-10.667v-21.333h64V405.333z" id="svg_5" stroke="#dadada" stroke-opacity="1" fill="#ffffff" fill-opacity="1"/>
			<path d="M256,0C114.844,0,0,114.844,0,256s114.844,256,256,256s256-114.844,256-256S397.156,0,256,0z M256,490.667     C126.604,490.667,21.333,385.396,21.333,256S126.604,21.333,256,21.333S490.667,126.604,490.667,256S385.396,490.667,256,490.667     z" id="svg_6" stroke="#dadada" stroke-opacity="1" fill="#ffffff" fill-opacity="1"/>
		</g>
	</g>
</g><g id="svg_7">
</g><g id="svg_8">
</g><g id="svg_9">
</g><g id="svg_10">
</g><g id="svg_11">
</g><g id="svg_12">
</g><g id="svg_13">
</g><g id="svg_14">
</g><g id="svg_15">
</g><g id="svg_16">
</g><g id="svg_17">
</g><g id="svg_18">
</g><g id="svg_19">
</g><g id="svg_20">
</g><g id="svg_21">
</g></g></svg>