<svg xmlns="http://www.w3.org/2000/svg" xmlns:xlink="http://www.w3.org/1999/xlink" version="1.1" style="" xml:space="preserve" width="512" height="512"><rect id="backgroundrect" width="100%" height="100%" x="0" y="0" fill="none" stroke="none"/>

















<g class="currentLayer" style=""><title>Layer 1</title><g id="svg_1" class="" fill="#ffffff" fill-opacity="1">
	<g id="svg_2" fill="#ffffff" fill-opacity="1">
		<path d="M256,0C156.595,0,75.726,82.14,75.726,183.099v145.807C75.726,429.865,156.595,512,256,512    c99.399,0,180.274-81.886,180.274-182.534V183.099C436.274,82.14,355.399,0,256,0z M402.366,329.466    c0,81.954-65.656,148.627-146.366,148.627c-80.705,0-146.366-66.927-146.366-149.192V183.099    c0-82.265,65.661-149.192,146.366-149.192c80.711,0,146.366,66.927,146.366,149.192V329.466z" id="svg_3" fill="#ffffff" fill-opacity="1"/>
	</g>
</g><g id="svg_4" class="selected" fill="#ffffff" fill-opacity="1">
	<g id="svg_5" fill="#ffffff" fill-opacity="1">
		<path d="M256,140.15c-9.364,0-16.954,7.59-16.954,16.954v59.338c0,9.364,7.59,16.954,16.954,16.954    c9.364,0,16.954-7.59,16.954-16.954v-59.338C272.954,147.74,265.364,140.15,256,140.15z" id="svg_6" fill="#ffffff" fill-opacity="1"/>
	</g>
</g><g id="svg_7">
</g><g id="svg_8">
</g><g id="svg_9">
</g><g id="svg_10">
</g><g id="svg_11">
</g><g id="svg_12">
</g><g id="svg_13">
</g><g id="svg_14">
</g><g id="svg_15">
</g><g id="svg_16">
</g><g id="svg_17">
</g><g id="svg_18">
</g><g id="svg_19">
</g><g id="svg_20">
</g><g id="svg_21">
</g></g></svg>